# xmcd
#
# Track frame offsets: 
#        150
#        5660
#        23031
#        31355
#        66737
#        72088
#        102640
#        113165
#        131499
#        136799
#        160646
#        171488
#        185573
#        197065
#        202722
#        225583
#        236155
#        261113
#
# Disc length: 4340 seconds
#
# Revision: 0
# Processed by: cddbd v1.5.2PL0 Copyright (c) Steve Scherf et al.
# Submitted via: ExactAudioCopy v0.99pb4
#
DISCID=fd10f212
DTITLE=Hank Williams - Mother's Best [CD12)
DYEAR=1951
DGENRE=Country
TTITLE0=Mother's Best
TTITLE1=Lonesome Whistle
TTITLE2=I Don't Love Nobody
TTITLE3=Great Judgement Morning
TTITLE4=Mother's Best
TTITLE5=I'll Sail My Ship Alone
TTITLE6=Little Annie
TTITLE7=I'll Have A New Body
TTITLE8=Mother's Best
TTITLE9=Dear John
TTITLE10=Roadside Rag
TTITLE11=I'll Fly Away
TTITLE12=Bonapartes' Retreat
TTITLE13=Mother's Best
TTITLE14=Cold Cold Heart
TTITLE15=Fire On The Mountain
TTITLE16=Farther Along
TTITLE17=Stars In Her Eyes (PSA For Veneral Disease Hank Sings and Tel
TTITLE17=ls The Story Radio Drama)
EXTD=
EXTT0=
EXTT1=
EXTT2=
EXTT3=
EXTT4=
EXTT5=
EXTT6=
EXTT7=
EXTT8=
EXTT9=
EXTT10=
EXTT11=
EXTT12=
EXTT13=
EXTT14=
EXTT15=
EXTT16=
EXTT17=
PLAYORDER=
